<svg width="251" height="72" viewBox="0 0 251 72" fill="none" xmlns="http://www.w3.org/2000/svg">
<g clip-path="url(#clip0_507_45543)">
<path fill-rule="evenodd" clip-rule="evenodd" d="M23.0369 27.8628C16.9373 24.3773 10.2289 22.793 10.2289 22.793L10.2256 42.2717C10.2256 58.5829 23.6798 71.8148 39.9751 71.8898V71.8901C39.9977 71.8901 40.0204 71.8901 40.043 71.89C40.0657 71.8901 40.0883 71.8901 40.111 71.8901V71.8898C56.4063 71.8148 69.8604 58.5829 69.8604 42.2717L69.8571 22.793C69.8571 22.793 63.1488 24.3773 57.0491 27.8628C49.0442 32.4365 40.8847 39.1172 40.043 39.8118C39.2014 39.1172 31.0417 32.4365 23.0369 27.8628Z" fill="#131C41"/>
<path fill-rule="evenodd" clip-rule="evenodd" d="M23.0366 25.9943C12.4342 21.4705 0.0888672 20.1239 0.0888672 20.1239L39.9715 0.182583V0.111328L40.0428 0.146956L40.114 0.111328V0.182583L79.9965 20.1239C79.9965 20.1239 67.6512 21.4705 57.0488 25.9943C48.4586 29.6593 41.2078 36.0773 40.114 37.07V37.2006C40.114 37.2006 40.0899 37.1781 40.0428 37.135C39.9956 37.1781 39.9715 37.2006 39.9715 37.2006V37.07C38.8778 36.0773 31.6268 29.6593 23.0366 25.9943Z" fill="#01A885"/>
<path fill-rule="evenodd" clip-rule="evenodd" d="M105.413 28.7158H99.0278V46.9901C99.0278 49.2656 98.4553 51.0468 97.3103 52.3338C96.1653 53.6208 94.6365 54.2643 92.7237 54.2643C90.8105 54.2643 89.2547 53.6208 88.0562 52.3338C86.8578 51.0468 86.2582 49.2656 86.2575 46.9901V28.7158H79.873V46.9901C79.873 49.056 80.1761 50.9195 80.7822 52.5805C81.3385 54.16 82.2195 55.6054 83.3685 56.8235C84.5048 58.0035 85.8835 58.9229 87.4097 59.5181C88.9857 60.1469 90.757 60.461 92.7237 60.4605C94.6635 60.4605 96.4214 60.1464 97.9974 59.5181C99.5149 58.9289 100.882 58.0083 101.998 56.8235C103.123 55.5984 103.983 54.1538 104.524 52.5805C105.116 50.9195 105.412 49.056 105.413 46.9901V28.7158V28.7158ZM119.188 36.8426C117.922 37.5611 116.898 38.6837 116.117 40.2102V35.9885H109.894V60.1463H116.117V48.2471C116.117 46.4506 116.555 44.9764 117.431 43.8244C118.306 42.6724 119.525 42.0812 121.088 42.0508C122.434 42.0508 123.485 42.4923 124.239 43.3753C124.994 44.2583 125.371 45.4631 125.371 46.9896V60.1463H131.595V44.9699C131.611 43.6756 131.42 42.387 131.029 41.1532C130.69 40.0863 130.148 39.0952 129.432 38.2347C128.75 37.4301 127.893 36.7926 126.927 36.3712C125.887 35.9259 124.765 35.704 123.633 35.7196C121.937 35.751 120.455 36.1255 119.188 36.8431V36.8426ZM136.448 26.3348C135.828 27.0532 135.518 27.9812 135.518 29.1187C135.519 30.2563 135.829 31.1843 136.448 31.9026C136.754 32.2417 137.129 32.5128 137.546 32.6983C137.964 32.8838 138.416 32.9797 138.873 32.9797C139.33 32.9797 139.782 32.8838 140.2 32.6983C140.618 32.5128 140.992 32.2417 141.298 31.9026C141.917 31.1843 142.226 30.2563 142.226 29.1187C142.226 27.9812 141.917 27.0532 141.298 26.3348C140.992 25.9957 140.618 25.7245 140.2 25.539C139.782 25.3535 139.33 25.2577 138.873 25.2578C138.416 25.2579 137.964 25.3539 137.546 25.5396C137.128 25.7254 136.754 25.9967 136.448 26.336V26.3348ZM141.984 60.1458V35.9891H135.761V60.1469H141.984V60.1458ZM155.801 36.7293C154.61 37.4044 153.609 38.3696 152.891 39.5352V26.83H146.668V60.1469H152.891V56.6438C153.612 57.814 154.621 58.7804 155.821 59.4511C156.993 60.0941 158.347 60.4159 159.883 60.4164C161.318 60.4375 162.74 60.1385 164.045 59.541C165.278 58.9618 166.362 58.1095 167.217 57.0488C168.131 55.899 168.822 54.5893 169.257 53.1864C170.233 49.9041 170.226 46.4077 169.237 43.1292C168.792 41.7022 168.086 40.37 167.156 39.1999C166.288 38.1244 165.191 37.2576 163.943 36.6635C162.635 36.0525 161.205 35.7454 159.762 35.7653C158.38 35.7405 157.016 36.073 155.801 36.7305V36.7293ZM154.387 52.826C153.389 51.5998 152.89 49.9835 152.891 47.977C152.891 46.001 153.39 44.3994 154.387 43.1723C155.384 41.9452 156.69 41.3316 158.306 41.3316C159.923 41.3316 161.223 41.9528 162.205 43.1951C163.188 44.4374 163.68 46.0314 163.681 47.977C163.691 48.8965 163.561 49.8122 163.298 50.6931C163.071 51.4598 162.7 52.1764 162.205 52.8046C161.746 53.3783 161.167 53.8453 160.509 54.1733C159.823 54.5087 159.069 54.6781 158.306 54.6681C156.689 54.6688 155.383 54.0552 154.387 52.8271V52.826ZM178.303 36.6623C176.963 37.2463 175.759 38.1022 174.766 39.1759C173.739 40.3064 172.955 41.6362 172.464 43.0825C171.393 46.3565 171.386 49.8856 172.444 53.1639C172.926 54.6032 173.704 55.9259 174.726 57.0476C175.725 58.1266 176.945 58.9768 178.303 59.5398C179.691 60.1229 181.26 60.4147 183.011 60.4152C184.977 60.4152 186.742 60.0407 188.305 59.2917C189.855 58.5536 191.221 57.4803 192.306 56.1494L189.032 52.4667C187.497 54.1733 185.665 55.0269 183.536 55.0273C182.134 55.0273 180.943 54.6006 179.96 53.747C178.976 52.8944 178.296 51.7044 177.919 50.177H193.518C193.652 47.9927 193.53 46.0095 193.154 44.2273C192.776 42.448 192.143 40.9291 191.255 39.6707C190.379 38.425 189.196 37.4274 187.82 36.775C186.419 36.1001 184.762 35.7632 182.849 35.7641C181.287 35.7426 179.739 36.049 178.303 36.6635V36.6623ZM177.797 46.0908C178.04 44.4754 178.606 43.1961 179.495 42.2527C180.384 41.3088 181.515 40.8374 182.89 40.8383C184.344 40.8383 185.496 41.3098 186.345 42.2527C187.193 43.1956 187.645 44.4749 187.699 46.0908H177.797ZM202.776 35.988H196.553V60.1458H202.776V48.5171C202.763 47.5725 202.934 46.6343 203.281 45.7555C203.598 44.9615 204.088 44.2483 204.715 43.6682C205.362 43.0842 206.138 42.6611 206.979 42.4335C207.953 42.173 208.969 42.1042 209.969 42.231V35.7196C206.71 35.7809 204.312 37.3227 202.776 40.3448V35.9891V35.988ZM225.42 53.7242C224.261 54.323 223.291 54.6224 222.51 54.6224C221.837 54.6524 221.319 54.4504 220.955 54.0165C220.591 53.5826 220.408 52.8569 220.408 51.8394V41.8706H226.308V37.0658H220.408V30.422H214.226V37.067H211.195V41.8275H214.226V53.0068C214.226 54.2643 214.401 55.3569 214.751 56.2846C215.06 57.1481 215.549 57.9363 216.185 58.5971C216.796 59.2139 217.534 59.6894 218.348 59.9901C219.215 60.3095 220.132 60.4689 221.056 60.4605C222.069 60.4621 223.077 60.3107 224.046 60.0115C224.984 59.7271 225.881 59.3196 226.713 58.7996L225.42 53.7242ZM250.694 35.988H244.471L239.339 52.6022L233.641 35.988H227.216L236.227 59.651L235.621 60.9984C235.001 62.4355 234.045 63.1541 232.753 63.1541C231.809 63.1541 230.866 62.7197 229.924 61.8509L227.296 66.8353C228.098 67.5874 229.029 68.1883 230.045 68.609C231.05 68.9944 232.12 69.185 233.196 69.1707C236.996 69.1707 239.649 67.0601 241.157 62.839L250.694 35.988Z" fill="#01A885"/>
</g>
<defs>
<clipPath id="clip0_507_45543">
<rect width="250.788" height="72" fill="white"/>
</clipPath>
</defs>
</svg>
